<svg width="38" height="38" viewBox="0 0 38 38" fill="none" xmlns="http://www.w3.org/2000/svg">
<circle cx="19" cy="19" r="19" fill="#E4F7EF"/>
<path d="M22.6699 20.9429C22.9277 20.9429 23.1621 20.7788 23.2324 20.521L24.334 15.646C24.4043 15.2944 24.1465 14.9429 23.7715 14.9429H14.584L14.373 13.9116C14.3027 13.6538 14.0684 13.4429 13.8105 13.4429H11.4199C11.0918 13.4429 10.8574 13.7007 10.8574 14.0054V14.3804C10.8574 14.7085 11.0918 14.9429 11.4199 14.9429H13.0371L14.7012 23.0054C14.2793 23.2397 13.998 23.6851 14.0449 24.2241C14.0684 24.8804 14.6074 25.4194 15.2871 25.4429C16.0371 25.4897 16.6699 24.8804 16.6699 24.1304C16.6699 23.7788 16.5059 23.4507 16.2715 23.1929H21.1699C20.9355 23.4507 20.7715 23.8022 20.7949 24.1772C20.7949 24.8804 21.3809 25.4429 22.084 25.4429C22.8105 25.4663 23.4199 24.8804 23.4199 24.1304C23.4199 23.6147 23.1152 23.1694 22.6699 22.9585L22.7871 22.396C22.8809 22.0444 22.5996 21.6929 22.248 21.6929H15.9668L15.8027 20.9429H22.6699ZM20.4199 17.3804C20.6074 17.3804 20.7949 17.5679 20.7949 17.7554V18.1304C20.7949 18.3413 20.6074 18.5054 20.4199 18.5054H19.2949V19.4429C19.2949 19.6538 19.1074 19.8179 18.9199 19.8179H18.5449C18.334 19.8179 18.1699 19.6538 18.1699 19.4429V18.5054H17.0449C16.834 18.5054 16.6699 18.3413 16.6699 18.1304V17.7554C16.6699 17.5679 16.834 17.3804 17.0449 17.3804H18.1699V16.4429C18.1699 16.2554 18.334 16.0679 18.5449 16.0679H18.9199C19.1074 16.0679 19.2949 16.2554 19.2949 16.4429V17.3804H20.4199Z" fill="#0CA678"/>
</svg>
